name p11_grf_mean_speed_1.0
datacolumns 13
datarows 40
range 0.0000000000 0.3900000000
endheader
time	grf_x_l_mean	grf_x_l_var	grf_y_l_mean	grf_y_l_var	grf_z_l_mean	grf_z_l_var	grf_x_r_mean	grf_x_r_var	grf_y_r_mean	grf_y_r_var	grf_z_r_mean	grf_z_r_var
0.0000000000	127.5357402720	1.0000000000	906.0511989463	1.0000000000	0.0000000000	0.0000000000	12.5675467192	1.0000000000	10.8600803765	1.0000000000	0.0000000000	0.0000000000
0.0100000000	138.1959216338	1.0000000000	897.5800772330	1.0000000000	0.0000000000	0.0000000000	22.4384969283	1.0000000000	47.6040707905	1.0000000000	0.0000000000	0.0000000000
0.0200000000	148.7965626411	1.0000000000	880.6616519056	1.0000000000	0.0000000000	0.0000000000	24.7042925801	1.0000000000	107.6696227563	1.0000000000	0.0000000000	0.0000000000
0.0300000000	157.5341577407	1.0000000000	852.1362199452	1.0000000000	0.0000000000	0.0000000000	8.3823888210	1.0000000000	179.4279797783	1.0000000000	0.0000000000	0.0000000000
0.0400000000	162.8639367525	1.0000000000	808.5864255405	1.0000000000	0.0000000000	0.0000000000	-21.3042723702	1.0000000000	251.3231997346	1.0000000000	0.0000000000	0.0000000000
0.0500000000	164.4564147654	1.0000000000	749.0218521918	1.0000000000	0.0000000000	0.0000000000	-49.2545428486	1.0000000000	323.4609709722	1.0000000000	0.0000000000	0.0000000000
0.0600000000	161.0838081149	1.0000000000	673.3418458479	1.0000000000	0.0000000000	0.0000000000	-70.9399349063	1.0000000000	394.5182620941	1.0000000000	0.0000000000	0.0000000000
0.0700000000	151.0165287932	1.0000000000	581.9914750424	1.0000000000	0.0000000000	0.0000000000	-88.3531725322	1.0000000000	459.4696586805	1.0000000000	0.0000000000	0.0000000000
0.0800000000	133.9593694716	1.0000000000	480.3168310733	1.0000000000	0.0000000000	0.0000000000	-100.8011475459	1.0000000000	516.2526536796	1.0000000000	0.0000000000	0.0000000000
0.0900000000	109.9320640557	1.0000000000	375.4885695539	1.0000000000	0.0000000000	0.0000000000	-108.0463307196	1.0000000000	564.4434173243	1.0000000000	0.0000000000	0.0000000000
0.1000000000	81.2430244031	1.0000000000	276.2917938655	1.0000000000	0.0000000000	0.0000000000	-111.4591063456	1.0000000000	608.3494103150	1.0000000000	0.0000000000	0.0000000000
0.1100000000	53.2944999907	1.0000000000	192.4761827637	1.0000000000	0.0000000000	0.0000000000	-113.1900966942	1.0000000000	654.6668704894	1.0000000000	0.0000000000	0.0000000000
0.1200000000	30.8331842778	1.0000000000	127.1999779055	1.0000000000	0.0000000000	0.0000000000	-113.4603418827	1.0000000000	701.8858467224	1.0000000000	0.0000000000	0.0000000000
0.1300000000	14.7577279609	1.0000000000	80.1486271671	1.0000000000	0.0000000000	0.0000000000	-112.1886758546	1.0000000000	745.8129087754	1.0000000000	0.0000000000	0.0000000000
0.1400000000	4.7696544295	1.0000000000	49.6038281441	1.0000000000	0.0000000000	0.0000000000	-109.5763386494	1.0000000000	784.6077131581	1.0000000000	0.0000000000	0.0000000000
0.1500000000	-0.6326252071	1.0000000000	29.9875203819	1.0000000000	0.0000000000	0.0000000000	-105.3725794093	1.0000000000	815.0538905185	1.0000000000	0.0000000000	0.0000000000
0.1600000000	-3.1082862324	1.0000000000	17.5944251082	1.0000000000	0.0000000000	0.0000000000	-99.7363302525	1.0000000000	835.2967028809	1.0000000000	0.0000000000	0.0000000000
0.1700000000	-3.6899276451	1.0000000000	10.3146634628	1.0000000000	0.0000000000	0.0000000000	-92.9915032901	1.0000000000	846.2504959818	1.0000000000	0.0000000000	0.0000000000
0.1800000000	-3.4267317861	1.0000000000	5.9147203620	1.0000000000	0.0000000000	0.0000000000	-85.9089246624	1.0000000000	849.1423636834	1.0000000000	0.0000000000	0.0000000000
0.1900000000	-2.7530553859	1.0000000000	3.7529118645	1.0000000000	0.0000000000	0.0000000000	-78.6833223605	1.0000000000	845.3149484376	1.0000000000	0.0000000000	0.0000000000
0.2000000000	-2.2139302694	1.0000000000	2.9440935024	1.0000000000	0.0000000000	0.0000000000	-71.3784907281	1.0000000000	835.8972324695	1.0000000000	0.0000000000	0.0000000000
0.2100000000	-1.9200780837	1.0000000000	2.6906077997	1.0000000000	0.0000000000	0.0000000000	-64.3506161290	1.0000000000	822.8857151269	1.0000000000	0.0000000000	0.0000000000
0.2200000000	-1.7307801782	1.0000000000	2.7373617331	1.0000000000	0.0000000000	0.0000000000	-57.5512864336	1.0000000000	808.0828896817	1.0000000000	0.0000000000	0.0000000000
0.2300000000	-1.6129748000	1.0000000000	2.7662367823	1.0000000000	0.0000000000	0.0000000000	-50.9059525923	1.0000000000	791.6259711222	1.0000000000	0.0000000000	0.0000000000
0.2400000000	-1.4861073702	1.0000000000	2.7887175872	1.0000000000	0.0000000000	0.0000000000	-44.7242419724	1.0000000000	775.6474715216	1.0000000000	0.0000000000	0.0000000000
0.2500000000	-1.3811167919	1.0000000000	2.8456496587	1.0000000000	0.0000000000	0.0000000000	-38.9503456791	1.0000000000	761.9973156415	1.0000000000	0.0000000000	0.0000000000
0.2600000000	-1.3000529931	1.0000000000	2.8031859218	1.0000000000	0.0000000000	0.0000000000	-33.3751949191	1.0000000000	750.4772816491	1.0000000000	0.0000000000	0.0000000000
0.2700000000	-1.2551482552	1.0000000000	2.7286398928	1.0000000000	0.0000000000	0.0000000000	-28.1677329984	1.0000000000	742.6851468555	1.0000000000	0.0000000000	0.0000000000
0.2800000000	-1.2437284608	1.0000000000	2.6178592165	1.0000000000	0.0000000000	0.0000000000	-23.3072727430	1.0000000000	739.7711981073	1.0000000000	0.0000000000	0.0000000000
0.2900000000	-1.2393159195	1.0000000000	2.4132016688	1.0000000000	0.0000000000	0.0000000000	-18.7373596971	1.0000000000	740.7946900249	1.0000000000	0.0000000000	0.0000000000
0.3000000000	-1.2285233496	1.0000000000	2.2038800714	1.0000000000	0.0000000000	0.0000000000	-14.2562884859	1.0000000000	745.2815267753	1.0000000000	0.0000000000	0.0000000000
0.3100000000	-1.1839694925	1.0000000000	2.0039161978	1.0000000000	0.0000000000	0.0000000000	-9.8712000178	1.0000000000	752.8406721774	1.0000000000	0.0000000000	0.0000000000
0.3200000000	-1.1046460572	1.0000000000	1.8202173971	1.0000000000	0.0000000000	0.0000000000	-5.4723730512	1.0000000000	762.2748318705	1.0000000000	0.0000000000	0.0000000000
0.3300000000	-1.0099824337	1.0000000000	1.6537641851	1.0000000000	0.0000000000	0.0000000000	-0.7746284594	1.0000000000	772.0623025337	1.0000000000	0.0000000000	0.0000000000
0.3400000000	-0.8924588839	1.0000000000	1.4491410039	1.0000000000	0.0000000000	0.0000000000	4.0920790136	1.0000000000	781.5895879549	1.0000000000	0.0000000000	0.0000000000
0.3500000000	-0.7893013029	1.0000000000	1.2580241589	1.0000000000	0.0000000000	0.0000000000	9.1972308720	1.0000000000	791.1282261938	1.0000000000	0.0000000000	0.0000000000
0.3600000000	-0.6886858685	1.0000000000	1.0603507428	1.0000000000	0.0000000000	0.0000000000	14.5758216288	1.0000000000	799.7378539716	1.0000000000	0.0000000000	0.0000000000
0.3700000000	-0.5903835891	1.0000000000	0.8518839760	1.0000000000	0.0000000000	0.0000000000	20.2471459768	1.0000000000	807.1879635089	1.0000000000	0.0000000000	0.0000000000
0.3800000000	-0.5058795663	1.0000000000	0.6843764844	1.0000000000	0.0000000000	0.0000000000	26.2125291315	1.0000000000	814.6335019446	1.0000000000	0.0000000000	0.0000000000
0.3900000000	-0.4106211416	1.0000000000	0.5579962848	1.0000000000	0.0000000000	0.0000000000	32.4198287840	1.0000000000	822.1877723978	1.0000000000	0.0000000000	0.0000000000
